solid OpenSCAD_Model
  facet normal 0.866025 0 -0.5
    outer loop
      vertex -0.674999 2 1.16913
      vertex -1.125 3 0.389711
      vertex -0.674999 3 1.16913
    endloop
  endfacet
  facet normal 0.866025 1.73718e-008 -0.5
    outer loop
      vertex -1.35 2 0
      vertex -1.125 3 0.389711
      vertex -0.674999 2 1.16913
    endloop
  endfacet
  facet normal 0.866025 0 -0.5
    outer loop
      vertex -1.125 3 0.389711
      vertex -1.35 2 0
      vertex -1.35 3 0
    endloop
  endfacet
  facet normal 0.866025 0 -0.5
    outer loop
      vertex -1.125 -4 0.389711
      vertex -0.674999 -3 1.16913
      vertex -0.674999 -4 1.16913
    endloop
  endfacet
  facet normal 0.866025 2.51919e-008 -0.5
    outer loop
      vertex -0.674999 -3 1.16913
      vertex -1.125 -4 0.389711
      vertex -1.35 -3 0
    endloop
  endfacet
  facet normal 0.866025 0 -0.5
    outer loop
      vertex -1.35 -3 0
      vertex -1.125 -4 0.389711
      vertex -1.35 -4 0
    endloop
  endfacet
  facet normal -0.866025 0 -0.5
    outer loop
      vertex 1.35 2 0
      vertex 1.125 3 0.38971
      vertex 1.35 3 0
    endloop
  endfacet
  facet normal -0.866025 -7.3907e-010 -0.5
    outer loop
      vertex 0.674999 2 1.16913
      vertex 1.125 3 0.38971
      vertex 1.35 2 0
    endloop
  endfacet
  facet normal -0.866025 0 -0.5
    outer loop
      vertex 1.125 3 0.38971
      vertex 0.674999 2 1.16913
      vertex 0.674999 3 1.16913
    endloop
  endfacet
  facet normal -0.866025 7.3907e-010 -0.5
    outer loop
      vertex 1.125 -4 0.38971
      vertex 0.674999 -3 1.16913
      vertex 1.35 -3 0
    endloop
  endfacet
  facet normal -0.866025 0 -0.5
    outer loop
      vertex 1.125 -4 0.38971
      vertex 1.35 -3 0
      vertex 1.35 -4 0
    endloop
  endfacet
  facet normal -0.866025 -0 -0.5
    outer loop
      vertex 0.674999 -3 1.16913
      vertex 1.125 -4 0.38971
      vertex 0.674999 -4 1.16913
    endloop
  endfacet
  facet normal 0 0 -1
    outer loop
      vertex -0.674999 2 1.16913
      vertex 0.674999 3 1.16913
      vertex 0.674999 2 1.16913
    endloop
  endfacet
  facet normal -0 0 -1
    outer loop
      vertex 0.674999 3 1.16913
      vertex -0.674999 2 1.16913
      vertex -0.674999 3 1.16913
    endloop
  endfacet
  facet normal 0 0 -1
    outer loop
      vertex -0.674999 -4 1.16913
      vertex 0.674999 -3 1.16913
      vertex 0.674999 -4 1.16913
    endloop
  endfacet
  facet normal -0 0 -1
    outer loop
      vertex 0.674999 -3 1.16913
      vertex -0.674999 -4 1.16913
      vertex -0.674999 -3 1.16913
    endloop
  endfacet
  facet normal 0 1 3.05891e-007
    outer loop
      vertex 1.125 3 1.94856
      vertex 0.674999 3 1.16913
      vertex -1.125 3 1.94856
    endloop
  endfacet
  facet normal 3.74779e-013 1 3.05891e-007
    outer loop
      vertex 0.674999 3 1.16913
      vertex 1.125 3 1.94856
      vertex 1.125 3 0.38971
    endloop
  endfacet
  facet normal -0 1 3.05891e-007
    outer loop
      vertex -0.674999 3 1.16913
      vertex -1.125 3 1.94856
      vertex 0.674999 3 1.16913
    endloop
  endfacet
  facet normal -1.51938e-013 1 3.05891e-007
    outer loop
      vertex -1.125 3 1.94856
      vertex -0.674999 3 1.16913
      vertex -1.125 3 0.389711
    endloop
  endfacet
  facet normal -0.866025 0 -0.5
    outer loop
      vertex 2.25 3 0
      vertex 1.125 8.5 1.94856
      vertex 2.25 8.5 0
    endloop
  endfacet
  facet normal -0.866025 -0 -0.5
    outer loop
      vertex 1.125 8.5 1.94856
      vertex 2.25 3 0
      vertex 1.125 3 1.94856
    endloop
  endfacet
  facet normal -3.17892e-007 1 3.05891e-007
    outer loop
      vertex 2.25 3 0
      vertex 1.125 3 0.38971
      vertex 1.125 3 1.94856
    endloop
  endfacet
  facet normal -5.29819e-007 1 -3.05891e-007
    outer loop
      vertex 1.125 3 0.38971
      vertex 2.25 3 0
      vertex 1.35 3 0
    endloop
  endfacet
  facet normal 5.29819e-007 1 -3.05891e-007
    outer loop
      vertex -2.25 3 0
      vertex -1.125 3 0.389711
      vertex -1.35 3 0
    endloop
  endfacet
  facet normal 3.17891e-007 1 3.05891e-007
    outer loop
      vertex -1.125 3 0.389711
      vertex -2.25 3 0
      vertex -1.125 3 1.94856
    endloop
  endfacet
  facet normal 0 0 -1
    outer loop
      vertex -1.125 3 1.94856
      vertex 1.125 8.5 1.94856
      vertex 1.125 3 1.94856
    endloop
  endfacet
  facet normal -0 0 -1
    outer loop
      vertex 1.125 8.5 1.94856
      vertex -1.125 3 1.94856
      vertex -1.125 8.5 1.94856
    endloop
  endfacet
  facet normal 0.866025 0 -0.5
    outer loop
      vertex -1.125 8.5 1.94856
      vertex -2.25 3 0
      vertex -2.25 8.5 0
    endloop
  endfacet
  facet normal 0.866025 0 -0.5
    outer loop
      vertex -2.25 3 0
      vertex -1.125 8.5 1.94856
      vertex -1.125 3 1.94856
    endloop
  endfacet
  facet normal -0.866025 0 -0.5
    outer loop
      vertex 2.25 -9.5 0
      vertex 1.125 -4 1.94856
      vertex 2.25 -4 0
    endloop
  endfacet
  facet normal -0.866025 -0 -0.5
    outer loop
      vertex 1.125 -4 1.94856
      vertex 2.25 -9.5 0
      vertex 1.125 -9.5 1.94856
    endloop
  endfacet
  facet normal 0 0 -1
    outer loop
      vertex -1.125 -9.5 1.94856
      vertex 1.125 -4 1.94856
      vertex 1.125 -9.5 1.94856
    endloop
  endfacet
  facet normal -0 0 -1
    outer loop
      vertex 1.125 -4 1.94856
      vertex -1.125 -9.5 1.94856
      vertex -1.125 -4 1.94856
    endloop
  endfacet
  facet normal 0.866025 0 -0.5
    outer loop
      vertex -1.125 -9.5 1.94856
      vertex -2.25 -4 0
      vertex -1.125 -4 1.94856
    endloop
  endfacet
  facet normal 0.866025 0 -0.5
    outer loop
      vertex -2.25 -4 0
      vertex -1.125 -9.5 1.94856
      vertex -2.25 -9.5 0
    endloop
  endfacet
  facet normal 0 -1 3.05891e-007
    outer loop
      vertex -1.125 -4 1.94856
      vertex -0.674999 -4 1.16913
      vertex 1.125 -4 1.94856
    endloop
  endfacet
  facet normal -4.05167e-014 -1 3.05891e-007
    outer loop
      vertex -0.674999 -4 1.16913
      vertex -1.125 -4 1.94856
      vertex -1.125 -4 0.389711
    endloop
  endfacet
  facet normal 0 -1 3.05891e-007
    outer loop
      vertex 0.674999 -4 1.16913
      vertex 1.125 -4 1.94856
      vertex -0.674999 -4 1.16913
    endloop
  endfacet
  facet normal 3.74779e-013 -1 3.05891e-007
    outer loop
      vertex 1.125 -4 1.94856
      vertex 0.674999 -4 1.16913
      vertex 1.125 -4 0.38971
    endloop
  endfacet
  facet normal -5.29819e-007 -1 -3.05891e-007
    outer loop
      vertex 2.25 -4 0
      vertex 1.125 -4 0.38971
      vertex 1.35 -4 0
    endloop
  endfacet
  facet normal -3.17892e-007 -1 3.05891e-007
    outer loop
      vertex 1.125 -4 0.38971
      vertex 2.25 -4 0
      vertex 1.125 -4 1.94856
    endloop
  endfacet
  facet normal 3.17891e-007 -1 3.05891e-007
    outer loop
      vertex -2.25 -4 0
      vertex -1.125 -4 0.389711
      vertex -1.125 -4 1.94856
    endloop
  endfacet
  facet normal 5.29819e-007 -1 -3.05891e-007
    outer loop
      vertex -1.125 -4 0.389711
      vertex -2.25 -4 0
      vertex -1.35 -4 0
    endloop
  endfacet
  facet normal -1 0 0
    outer loop
      vertex -12.5 -9.5 0
      vertex -12.5 8.5 8.2
      vertex -12.5 8.5 0
    endloop
  endfacet
  facet normal -1 -0 0
    outer loop
      vertex -12.5 8.5 8.2
      vertex -12.5 -9.5 0
      vertex -12.5 -9.5 8.2
    endloop
  endfacet
  facet normal 0 0 1
    outer loop
      vertex -11.1 8.5 8.2
      vertex -12.5 8.5 8.2
      vertex -11.1 -5 8.2
    endloop
  endfacet
  facet normal 0 0 1
    outer loop
      vertex 11.1 -5 8.2
      vertex 12.5 8.5 8.2
      vertex 11.1 8.5 8.2
    endloop
  endfacet
  facet normal 0 0 1
    outer loop
      vertex 12.5 8.5 8.2
      vertex 11.1 -5 8.2
      vertex 12.5 -9.5 8.2
    endloop
  endfacet
  facet normal -0 0 1
    outer loop
      vertex -11.1 -5 8.2
      vertex 12.5 -9.5 8.2
      vertex 11.1 -5 8.2
    endloop
  endfacet
  facet normal 0 0 1
    outer loop
      vertex -11.1 -5 8.2
      vertex -12.5 -9.5 8.2
      vertex 12.5 -9.5 8.2
    endloop
  endfacet
  facet normal 0 0 1
    outer loop
      vertex -12.5 -9.5 8.2
      vertex -11.1 -5 8.2
      vertex -12.5 8.5 8.2
    endloop
  endfacet
  facet normal 1 -0 0
    outer loop
      vertex 12.5 -9.5 8.2
      vertex 12.5 8.5 0
      vertex 12.5 8.5 8.2
    endloop
  endfacet
  facet normal 1 0 0
    outer loop
      vertex 12.5 8.5 0
      vertex 12.5 -9.5 8.2
      vertex 12.5 -9.5 0
    endloop
  endfacet
  facet normal 0 0 -1
    outer loop
      vertex -7.68785 -1.56926 0
      vertex -2.25 -4 0
      vertex -2.25 -9.5 0
    endloop
  endfacet
  facet normal 0 0 -1
    outer loop
      vertex -6.43074 -0.312144 0
      vertex -3 2 0
      vertex -3 -3 0
    endloop
  endfacet
  facet normal 0 0 -1
    outer loop
      vertex -2.25 -4 0
      vertex -7.68785 -1.56926 0
      vertex -3 -3 0
    endloop
  endfacet
  facet normal 0 0 -1
    outer loop
      vertex -3 2 0
      vertex -6.43074 -0.312144 0
      vertex -6.4 0 0
    endloop
  endfacet
  facet normal 0 0 -1
    outer loop
      vertex -3 -3 0
      vertex -6.52179 -0.612293 0
      vertex -6.43074 -0.312144 0
    endloop
  endfacet
  facet normal 0 0 -1
    outer loop
      vertex -3 -3 0
      vertex -6.66965 -0.888912 0
      vertex -6.52179 -0.612293 0
    endloop
  endfacet
  facet normal 0 0 -1
    outer loop
      vertex -3 -3 0
      vertex -6.86863 -1.13137 0
      vertex -6.66965 -0.888912 0
    endloop
  endfacet
  facet normal 0 0 -1
    outer loop
      vertex -3 -3 0
      vertex -7.11109 -1.33035 0
      vertex -6.86863 -1.13137 0
    endloop
  endfacet
  facet normal 0 0 -1
    outer loop
      vertex -3 -3 0
      vertex -7.38771 -1.47821 0
      vertex -7.11109 -1.33035 0
    endloop
  endfacet
  facet normal 0 0 -1
    outer loop
      vertex -3 -3 0
      vertex -7.68785 -1.56926 0
      vertex -7.38771 -1.47821 0
    endloop
  endfacet
  facet normal 0 0 -1
    outer loop
      vertex -2.25 -9.5 0
      vertex -8 -1.6 0
      vertex -7.68785 -1.56926 0
    endloop
  endfacet
  facet normal 0 0 -1
    outer loop
      vertex -12.5 -9.5 0
      vertex -8 -1.6 0
      vertex -2.25 -9.5 0
    endloop
  endfacet
  facet normal -0 0 -1
    outer loop
      vertex -8 -1.6 0
      vertex -12.5 -9.5 0
      vertex -8.31214 -1.56926 0
    endloop
  endfacet
  facet normal -0 0 -1
    outer loop
      vertex -8.31214 -1.56926 0
      vertex -12.5 -9.5 0
      vertex -8.61229 -1.47821 0
    endloop
  endfacet
  facet normal -0 0 -1
    outer loop
      vertex -8.61229 -1.47821 0
      vertex -12.5 -9.5 0
      vertex -8.88891 -1.33035 0
    endloop
  endfacet
  facet normal -0 0 -1
    outer loop
      vertex -9.56926 -0.312144 0
      vertex -12.5 -9.5 0
      vertex -9.6 0 0
    endloop
  endfacet
  facet normal -0 0 -1
    outer loop
      vertex -9.47821 -0.612293 0
      vertex -12.5 -9.5 0
      vertex -9.56926 -0.312144 0
    endloop
  endfacet
  facet normal -0 0 -1
    outer loop
      vertex -9.33035 -0.888912 0
      vertex -12.5 -9.5 0
      vertex -9.47821 -0.612293 0
    endloop
  endfacet
  facet normal -0 0 -1
    outer loop
      vertex -9.13137 -1.13137 0
      vertex -12.5 -9.5 0
      vertex -9.33035 -0.888912 0
    endloop
  endfacet
  facet normal -0 0 -1
    outer loop
      vertex -8.88891 -1.33035 0
      vertex -12.5 -9.5 0
      vertex -9.13137 -1.13137 0
    endloop
  endfacet
  facet normal 0 0 -1
    outer loop
      vertex -2.25 -4 0
      vertex -1.35 -3 0
      vertex -1.35 -4 0
    endloop
  endfacet
  facet normal -0 0 -1
    outer loop
      vertex -1.35 -3 0
      vertex -2.25 -4 0
      vertex -3 -3 0
    endloop
  endfacet
  facet normal 0 0 -1
    outer loop
      vertex -1.35 2 0
      vertex -2.25 3 0
      vertex -1.35 3 0
    endloop
  endfacet
  facet normal 0 0 -1
    outer loop
      vertex -3 2 0
      vertex -2.25 3 0
      vertex -1.35 2 0
    endloop
  endfacet
  facet normal 0 0 -1
    outer loop
      vertex -7.38771 1.47821 0
      vertex -2.25 3 0
      vertex -3 2 0
    endloop
  endfacet
  facet normal 0 0 -1
    outer loop
      vertex -6.43074 0.312144 0
      vertex -3 2 0
      vertex -6.4 0 0
    endloop
  endfacet
  facet normal 0 0 -1
    outer loop
      vertex -6.52179 0.612293 0
      vertex -3 2 0
      vertex -6.43074 0.312144 0
    endloop
  endfacet
  facet normal 0 0 -1
    outer loop
      vertex -6.66965 0.888912 0
      vertex -3 2 0
      vertex -6.52179 0.612293 0
    endloop
  endfacet
  facet normal 0 0 -1
    outer loop
      vertex -6.86863 1.13137 0
      vertex -3 2 0
      vertex -6.66965 0.888912 0
    endloop
  endfacet
  facet normal 0 0 -1
    outer loop
      vertex -7.11109 1.33035 0
      vertex -3 2 0
      vertex -6.86863 1.13137 0
    endloop
  endfacet
  facet normal 0 0 -1
    outer loop
      vertex -7.38771 1.47821 0
      vertex -3 2 0
      vertex -7.11109 1.33035 0
    endloop
  endfacet
  facet normal -0 0 -1
    outer loop
      vertex -2.25 3 0
      vertex -7.38771 1.47821 0
      vertex -2.25 8.5 0
    endloop
  endfacet
  facet normal 0 0 -1
    outer loop
      vertex -7.68785 1.56926 0
      vertex -2.25 8.5 0
      vertex -7.38771 1.47821 0
    endloop
  endfacet
  facet normal 0 0 -1
    outer loop
      vertex -8 1.6 0
      vertex -2.25 8.5 0
      vertex -7.68785 1.56926 0
    endloop
  endfacet
  facet normal 0 0 -1
    outer loop
      vertex -12.5 8.5 0
      vertex -8 1.6 0
      vertex -8.31214 1.56926 0
    endloop
  endfacet
  facet normal 0 0 -1
    outer loop
      vertex -12.5 8.5 0
      vertex -8.31214 1.56926 0
      vertex -8.61229 1.47821 0
    endloop
  endfacet
  facet normal 0 0 -1
    outer loop
      vertex -12.5 8.5 0
      vertex -8.61229 1.47821 0
      vertex -8.88891 1.33035 0
    endloop
  endfacet
  facet normal 0 0 -1
    outer loop
      vertex -12.5 8.5 0
      vertex -8.88891 1.33035 0
      vertex -9.13137 1.13137 0
    endloop
  endfacet
  facet normal 0 0 -1
    outer loop
      vertex -12.5 8.5 0
      vertex -9.6 0 0
      vertex -12.5 -9.5 0
    endloop
  endfacet
  facet normal 0 0 -1
    outer loop
      vertex -8 1.6 0
      vertex -12.5 8.5 0
      vertex -2.25 8.5 0
    endloop
  endfacet
  facet normal 0 0 -1
    outer loop
      vertex -9.33035 0.888912 0
      vertex -12.5 8.5 0
      vertex -9.13137 1.13137 0
    endloop
  endfacet
  facet normal 0 0 -1
    outer loop
      vertex -9.47821 0.612293 0
      vertex -12.5 8.5 0
      vertex -9.33035 0.888912 0
    endloop
  endfacet
  facet normal 0 0 -1
    outer loop
      vertex -9.56926 0.312144 0
      vertex -12.5 8.5 0
      vertex -9.47821 0.612293 0
    endloop
  endfacet
  facet normal 0 0 -1
    outer loop
      vertex -9.6 0 0
      vertex -12.5 8.5 0
      vertex -9.56926 0.312144 0
    endloop
  endfacet
  facet normal 0 0 -1
    outer loop
      vertex 1.35 2 0
      vertex 2.25 3 0
      vertex 3 2 0
    endloop
  endfacet
  facet normal 0 0 -1
    outer loop
      vertex 2.25 3 0
      vertex 1.35 2 0
      vertex 1.35 3 0
    endloop
  endfacet
  facet normal 0 0 -1
    outer loop
      vertex 12.5 -9.5 0
      vertex 9.6 0 0
      vertex 12.5 8.5 0
    endloop
  endfacet
  facet normal 0 0 -1
    outer loop
      vertex 12.5 -9.5 0
      vertex 9.56926 -0.312144 0
      vertex 9.6 0 0
    endloop
  endfacet
  facet normal 0 0 -1
    outer loop
      vertex 12.5 -9.5 0
      vertex 9.47821 -0.612293 0
      vertex 9.56926 -0.312144 0
    endloop
  endfacet
  facet normal 0 0 -1
    outer loop
      vertex 12.5 -9.5 0
      vertex 9.33035 -0.888912 0
      vertex 9.47821 -0.612293 0
    endloop
  endfacet
  facet normal 0 0 -1
    outer loop
      vertex 12.5 -9.5 0
      vertex 9.13137 -1.13137 0
      vertex 9.33035 -0.888912 0
    endloop
  endfacet
  facet normal 0 0 -1
    outer loop
      vertex 12.5 -9.5 0
      vertex 8.88891 -1.33035 0
      vertex 9.13137 -1.13137 0
    endloop
  endfacet
  facet normal 0 0 -1
    outer loop
      vertex 12.5 -9.5 0
      vertex 8.61229 -1.47821 0
      vertex 8.88891 -1.33035 0
    endloop
  endfacet
  facet normal 0 0 -1
    outer loop
      vertex 12.5 -9.5 0
      vertex 8.31214 -1.56926 0
      vertex 8.61229 -1.47821 0
    endloop
  endfacet
  facet normal 0 0 -1
    outer loop
      vertex 12.5 -9.5 0
      vertex 8 -1.6 0
      vertex 8.31214 -1.56926 0
    endloop
  endfacet
  facet normal 0 0 -1
    outer loop
      vertex 2.25 -9.5 0
      vertex 8 -1.6 0
      vertex 12.5 -9.5 0
    endloop
  endfacet
  facet normal -0 0 -1
    outer loop
      vertex 8 -1.6 0
      vertex 2.25 -9.5 0
      vertex 7.68785 -1.56926 0
    endloop
  endfacet
  facet normal 0 0 -1
    outer loop
      vertex 2.25 -4 0
      vertex 7.68785 -1.56926 0
      vertex 2.25 -9.5 0
    endloop
  endfacet
  facet normal 0 -0 -1
    outer loop
      vertex 3 -3 0
      vertex 7.68785 -1.56926 0
      vertex 2.25 -4 0
    endloop
  endfacet
  facet normal -0 0 -1
    outer loop
      vertex 7.38771 -1.47821 0
      vertex 3 -3 0
      vertex 7.11109 -1.33035 0
    endloop
  endfacet
  facet normal 0 0 -1
    outer loop
      vertex 3 2 0
      vertex 6.43074 -0.312144 0
      vertex 3 -3 0
    endloop
  endfacet
  facet normal -0 0 -1
    outer loop
      vertex 6.52179 -0.612293 0
      vertex 3 -3 0
      vertex 6.43074 -0.312144 0
    endloop
  endfacet
  facet normal -0 0 -1
    outer loop
      vertex 6.66965 -0.888912 0
      vertex 3 -3 0
      vertex 6.52179 -0.612293 0
    endloop
  endfacet
  facet normal -0 0 -1
    outer loop
      vertex 6.86863 -1.13137 0
      vertex 3 -3 0
      vertex 6.66965 -0.888912 0
    endloop
  endfacet
  facet normal -0 0 -1
    outer loop
      vertex 7.11109 -1.33035 0
      vertex 3 -3 0
      vertex 6.86863 -1.13137 0
    endloop
  endfacet
  facet normal -0 0 -1
    outer loop
      vertex 7.68785 -1.56926 0
      vertex 3 -3 0
      vertex 7.38771 -1.47821 0
    endloop
  endfacet
  facet normal 0 0 -1
    outer loop
      vertex 1.35 -3 0
      vertex 2.25 -4 0
      vertex 1.35 -4 0
    endloop
  endfacet
  facet normal 0 0 -1
    outer loop
      vertex 2.25 -4 0
      vertex 1.35 -3 0
      vertex 3 -3 0
    endloop
  endfacet
  facet normal 0 0 -1
    outer loop
      vertex 9.56926 0.312144 0
      vertex 12.5 8.5 0
      vertex 9.6 0 0
    endloop
  endfacet
  facet normal 0 0 -1
    outer loop
      vertex 9.47821 0.612293 0
      vertex 12.5 8.5 0
      vertex 9.56926 0.312144 0
    endloop
  endfacet
  facet normal 0 0 -1
    outer loop
      vertex 9.33035 0.888912 0
      vertex 12.5 8.5 0
      vertex 9.47821 0.612293 0
    endloop
  endfacet
  facet normal 0 0 -1
    outer loop
      vertex 9.13137 1.13137 0
      vertex 12.5 8.5 0
      vertex 9.33035 0.888912 0
    endloop
  endfacet
  facet normal 0 0 -1
    outer loop
      vertex 8.88891 1.33035 0
      vertex 12.5 8.5 0
      vertex 9.13137 1.13137 0
    endloop
  endfacet
  facet normal 0 0 -1
    outer loop
      vertex 8.61229 1.47821 0
      vertex 12.5 8.5 0
      vertex 8.88891 1.33035 0
    endloop
  endfacet
  facet normal 0 0 -1
    outer loop
      vertex 8.31214 1.56926 0
      vertex 12.5 8.5 0
      vertex 8.61229 1.47821 0
    endloop
  endfacet
  facet normal 0 0 -1
    outer loop
      vertex 8 1.6 0
      vertex 12.5 8.5 0
      vertex 8.31214 1.56926 0
    endloop
  endfacet
  facet normal 0 0 -1
    outer loop
      vertex 2.25 8.5 0
      vertex 8 1.6 0
      vertex 7.68785 1.56926 0
    endloop
  endfacet
  facet normal 0 0 -1
    outer loop
      vertex 2.25 8.5 0
      vertex 7.68785 1.56926 0
      vertex 7.38771 1.47821 0
    endloop
  endfacet
  facet normal 0 0 -1
    outer loop
      vertex 3 2 0
      vertex 7.38771 1.47821 0
      vertex 7.11109 1.33035 0
    endloop
  endfacet
  facet normal 0 0 -1
    outer loop
      vertex 3 2 0
      vertex 7.11109 1.33035 0
      vertex 6.86863 1.13137 0
    endloop
  endfacet
  facet normal 0 0 -1
    outer loop
      vertex 3 2 0
      vertex 6.86863 1.13137 0
      vertex 6.66965 0.888912 0
    endloop
  endfacet
  facet normal 0 0 -1
    outer loop
      vertex 6.43074 -0.312144 0
      vertex 3 2 0
      vertex 6.4 0 0
    endloop
  endfacet
  facet normal 0 0 -1
    outer loop
      vertex 6.4 0 0
      vertex 3 2 0
      vertex 6.43074 0.312144 0
    endloop
  endfacet
  facet normal 0 0 -1
    outer loop
      vertex 6.43074 0.312144 0
      vertex 3 2 0
      vertex 6.52179 0.612293 0
    endloop
  endfacet
  facet normal 0 0 -1
    outer loop
      vertex 6.52179 0.612293 0
      vertex 3 2 0
      vertex 6.66965 0.888912 0
    endloop
  endfacet
  facet normal 0 0 -1
    outer loop
      vertex 7.38771 1.47821 0
      vertex 3 2 0
      vertex 2.25 3 0
    endloop
  endfacet
  facet normal 0 0 -1
    outer loop
      vertex 7.38771 1.47821 0
      vertex 2.25 3 0
      vertex 2.25 8.5 0
    endloop
  endfacet
  facet normal 0 0 -1
    outer loop
      vertex 8 1.6 0
      vertex 2.25 8.5 0
      vertex 12.5 8.5 0
    endloop
  endfacet
  facet normal 0 -1 0
    outer loop
      vertex -12.5 -9.5 8.2
      vertex -1.125 -9.5 1.94856
      vertex 12.5 -9.5 8.2
    endloop
  endfacet
  facet normal 0 -1 0
    outer loop
      vertex -2.25 -9.5 0
      vertex -12.5 -9.5 8.2
      vertex -12.5 -9.5 0
    endloop
  endfacet
  facet normal 0 -1 0
    outer loop
      vertex -12.5 -9.5 8.2
      vertex -2.25 -9.5 0
      vertex -1.125 -9.5 1.94856
    endloop
  endfacet
  facet normal 0 -1 0
    outer loop
      vertex 1.125 -9.5 1.94856
      vertex 12.5 -9.5 8.2
      vertex -1.125 -9.5 1.94856
    endloop
  endfacet
  facet normal 0 -1 0
    outer loop
      vertex 2.25 -9.5 0
      vertex 12.5 -9.5 8.2
      vertex 1.125 -9.5 1.94856
    endloop
  endfacet
  facet normal 0 -1 -0
    outer loop
      vertex 12.5 -9.5 8.2
      vertex 2.25 -9.5 0
      vertex 12.5 -9.5 0
    endloop
  endfacet
  facet normal 0 1 0
    outer loop
      vertex 12.5 8.5 8.2
      vertex 11.1 8.5 7
      vertex 11.1 8.5 8.2
    endloop
  endfacet
  facet normal 0 1 0
    outer loop
      vertex 11.1 8.5 7
      vertex 9.25 8.5 4.2
      vertex 9.25 8.5 7
    endloop
  endfacet
  facet normal 0 1 -0
    outer loop
      vertex 12.5 8.5 0
      vertex 11.1 8.5 7
      vertex 12.5 8.5 8.2
    endloop
  endfacet
  facet normal 0 1 0
    outer loop
      vertex 9.25 8.5 4.2
      vertex 1.125 8.5 1.94856
      vertex -9.25 8.5 4.2
    endloop
  endfacet
  facet normal 0 1 0
    outer loop
      vertex 11.1 8.5 7
      vertex 12.5 8.5 0
      vertex 9.25 8.5 4.2
    endloop
  endfacet
  facet normal 0 1 0
    outer loop
      vertex 2.25 8.5 0
      vertex 9.25 8.5 4.2
      vertex 12.5 8.5 0
    endloop
  endfacet
  facet normal 0 1 0
    outer loop
      vertex 9.25 8.5 4.2
      vertex 2.25 8.5 0
      vertex 1.125 8.5 1.94856
    endloop
  endfacet
  facet normal 0 1 0
    outer loop
      vertex -9.25 8.5 7
      vertex -9.25 8.5 4.2
      vertex -11.1 8.5 7
    endloop
  endfacet
  facet normal 0 1 -0
    outer loop
      vertex -11.1 8.5 7
      vertex -12.5 8.5 8.2
      vertex -11.1 8.5 8.2
    endloop
  endfacet
  facet normal 0 1 0
    outer loop
      vertex -12.5 8.5 0
      vertex -11.1 8.5 7
      vertex -9.25 8.5 4.2
    endloop
  endfacet
  facet normal 0 1 -0
    outer loop
      vertex -1.125 8.5 1.94856
      vertex -9.25 8.5 4.2
      vertex 1.125 8.5 1.94856
    endloop
  endfacet
  facet normal 0 1 -0
    outer loop
      vertex -2.25 8.5 0
      vertex -9.25 8.5 4.2
      vertex -1.125 8.5 1.94856
    endloop
  endfacet
  facet normal 0 1 0
    outer loop
      vertex -11.1 8.5 7
      vertex -12.5 8.5 0
      vertex -12.5 8.5 8.2
    endloop
  endfacet
  facet normal 0 1 0
    outer loop
      vertex -12.5 8.5 0
      vertex -9.25 8.5 4.2
      vertex -2.25 8.5 0
    endloop
  endfacet
  facet normal -0.995185 -0.0980174 0
    outer loop
      vertex -6.4 0 0
      vertex -6.43074 0.312144 7
      vertex -6.43074 0.312144 0
    endloop
  endfacet
  facet normal -0.995185 -0.0980174 0
    outer loop
      vertex -6.43074 0.312144 7
      vertex -6.4 0 0
      vertex -6.4 0 7
    endloop
  endfacet
  facet normal 0.995185 -0.0980174 0
    outer loop
      vertex -9.6 0 7
      vertex -9.56926 0.312144 0
      vertex -9.56926 0.312144 7
    endloop
  endfacet
  facet normal 0.995185 -0.0980174 0
    outer loop
      vertex -9.56926 0.312144 0
      vertex -9.6 0 7
      vertex -9.6 0 0
    endloop
  endfacet
  facet normal -0.0980171 -0.995185 0
    outer loop
      vertex -8 1.6 0
      vertex -7.68785 1.56926 7
      vertex -8 1.6 7
    endloop
  endfacet
  facet normal -0.0980171 -0.995185 -0
    outer loop
      vertex -7.68785 1.56926 7
      vertex -8 1.6 0
      vertex -7.68785 1.56926 0
    endloop
  endfacet
  facet normal -0.0980171 0.995185 0
    outer loop
      vertex -7.68785 -1.56926 0
      vertex -8 -1.6 7
      vertex -7.68785 -1.56926 7
    endloop
  endfacet
  facet normal -0.0980171 0.995185 0
    outer loop
      vertex -8 -1.6 7
      vertex -7.68785 -1.56926 0
      vertex -8 -1.6 0
    endloop
  endfacet
  facet normal -0.634393 -0.773011 0
    outer loop
      vertex -7.11109 1.33035 0
      vertex -6.86863 1.13137 7
      vertex -7.11109 1.33035 7
    endloop
  endfacet
  facet normal -0.634393 -0.773011 -0
    outer loop
      vertex -6.86863 1.13137 7
      vertex -7.11109 1.33035 0
      vertex -6.86863 1.13137 0
    endloop
  endfacet
  facet normal 0.634393 -0.773011 0
    outer loop
      vertex -9.13137 1.13137 0
      vertex -8.88891 1.33035 7
      vertex -9.13137 1.13137 7
    endloop
  endfacet
  facet normal 0.634393 -0.773011 0
    outer loop
      vertex -8.88891 1.33035 7
      vertex -9.13137 1.13137 0
      vertex -8.88891 1.33035 0
    endloop
  endfacet
  facet normal 0.290285 -0.95694 0
    outer loop
      vertex -8.61229 1.47821 0
      vertex -8.31214 1.56926 7
      vertex -8.61229 1.47821 7
    endloop
  endfacet
  facet normal 0.290285 -0.95694 0
    outer loop
      vertex -8.31214 1.56926 7
      vertex -8.61229 1.47821 0
      vertex -8.31214 1.56926 0
    endloop
  endfacet
  facet normal -0.95694 0.290285 0
    outer loop
      vertex -6.52179 -0.612293 0
      vertex -6.43074 -0.312144 7
      vertex -6.43074 -0.312144 0
    endloop
  endfacet
  facet normal -0.95694 0.290285 0
    outer loop
      vertex -6.43074 -0.312144 7
      vertex -6.52179 -0.612293 0
      vertex -6.52179 -0.612293 7
    endloop
  endfacet
  facet normal -0.881921 -0.471396 0
    outer loop
      vertex -6.52179 0.612293 0
      vertex -6.66965 0.888912 7
      vertex -6.66965 0.888912 0
    endloop
  endfacet
  facet normal -0.881921 -0.471396 0
    outer loop
      vertex -6.66965 0.888912 7
      vertex -6.52179 0.612293 0
      vertex -6.52179 0.612293 7
    endloop
  endfacet
  facet normal -0.95694 -0.290285 0
    outer loop
      vertex -6.43074 0.312144 0
      vertex -6.52179 0.612293 7
      vertex -6.52179 0.612293 0
    endloop
  endfacet
  facet normal -0.95694 -0.290285 0
    outer loop
      vertex -6.52179 0.612293 7
      vertex -6.43074 0.312144 0
      vertex -6.43074 0.312144 7
    endloop
  endfacet
  facet normal -0.773011 -0.634393 0
    outer loop
      vertex -6.66965 0.888912 0
      vertex -6.86863 1.13137 7
      vertex -6.86863 1.13137 0
    endloop
  endfacet
  facet normal -0.773011 -0.634393 0
    outer loop
      vertex -6.86863 1.13137 7
      vertex -6.66965 0.888912 0
      vertex -6.66965 0.888912 7
    endloop
  endfacet
  facet normal -0.290285 -0.95694 0
    outer loop
      vertex -7.68785 1.56926 0
      vertex -7.38771 1.47821 7
      vertex -7.68785 1.56926 7
    endloop
  endfacet
  facet normal -0.290285 -0.95694 -0
    outer loop
      vertex -7.38771 1.47821 7
      vertex -7.68785 1.56926 0
      vertex -7.38771 1.47821 0
    endloop
  endfacet
  facet normal -0.471396 -0.881921 0
    outer loop
      vertex -7.38771 1.47821 0
      vertex -7.11109 1.33035 7
      vertex -7.38771 1.47821 7
    endloop
  endfacet
  facet normal -0.471396 -0.881921 -0
    outer loop
      vertex -7.11109 1.33035 7
      vertex -7.38771 1.47821 0
      vertex -7.11109 1.33035 0
    endloop
  endfacet
  facet normal 0.881921 -0.471396 0
    outer loop
      vertex -9.47821 0.612293 7
      vertex -9.33035 0.888912 0
      vertex -9.33035 0.888912 7
    endloop
  endfacet
  facet normal 0.881921 -0.471396 0
    outer loop
      vertex -9.33035 0.888912 0
      vertex -9.47821 0.612293 7
      vertex -9.47821 0.612293 0
    endloop
  endfacet
  facet normal 0.773011 -0.634393 0
    outer loop
      vertex -9.33035 0.888912 7
      vertex -9.13137 1.13137 0
      vertex -9.13137 1.13137 7
    endloop
  endfacet
  facet normal 0.773011 -0.634393 0
    outer loop
      vertex -9.13137 1.13137 0
      vertex -9.33035 0.888912 7
      vertex -9.33035 0.888912 0
    endloop
  endfacet
  facet normal 0.95694 -0.290285 0
    outer loop
      vertex -9.56926 0.312144 7
      vertex -9.47821 0.612293 0
      vertex -9.47821 0.612293 7
    endloop
  endfacet
  facet normal 0.95694 -0.290285 0
    outer loop
      vertex -9.47821 0.612293 0
      vertex -9.56926 0.312144 7
      vertex -9.56926 0.312144 0
    endloop
  endfacet
  facet normal 0.471396 -0.881921 0
    outer loop
      vertex -8.88891 1.33035 0
      vertex -8.61229 1.47821 7
      vertex -8.88891 1.33035 7
    endloop
  endfacet
  facet normal 0.471396 -0.881921 0
    outer loop
      vertex -8.61229 1.47821 7
      vertex -8.88891 1.33035 0
      vertex -8.61229 1.47821 0
    endloop
  endfacet
  facet normal 0.0980174 -0.995185 0
    outer loop
      vertex -8.31214 1.56926 0
      vertex -8 1.6 7
      vertex -8.31214 1.56926 7
    endloop
  endfacet
  facet normal 0.0980174 -0.995185 0
    outer loop
      vertex -8 1.6 7
      vertex -8.31214 1.56926 0
      vertex -8 1.6 0
    endloop
  endfacet
  facet normal -0.995185 0.0980174 0
    outer loop
      vertex -6.43074 -0.312144 0
      vertex -6.4 0 7
      vertex -6.4 0 0
    endloop
  endfacet
  facet normal -0.995185 0.0980174 0
    outer loop
      vertex -6.4 0 7
      vertex -6.43074 -0.312144 0
      vertex -6.43074 -0.312144 7
    endloop
  endfacet
  facet normal 0.773011 0.634393 0
    outer loop
      vertex -9.13137 -1.13137 7
      vertex -9.33035 -0.888912 0
      vertex -9.33035 -0.888912 7
    endloop
  endfacet
  facet normal 0.773011 0.634393 0
    outer loop
      vertex -9.33035 -0.888912 0
      vertex -9.13137 -1.13137 7
      vertex -9.13137 -1.13137 0
    endloop
  endfacet
  facet normal -0.881921 0.471396 0
    outer loop
      vertex -6.66965 -0.888912 0
      vertex -6.52179 -0.612293 7
      vertex -6.52179 -0.612293 0
    endloop
  endfacet
  facet normal -0.881921 0.471396 0
    outer loop
      vertex -6.52179 -0.612293 7
      vertex -6.66965 -0.888912 0
      vertex -6.66965 -0.888912 7
    endloop
  endfacet
  facet normal -0.290285 0.95694 0
    outer loop
      vertex -7.38771 -1.47821 0
      vertex -7.68785 -1.56926 7
      vertex -7.38771 -1.47821 7
    endloop
  endfacet
  facet normal -0.290285 0.95694 0
    outer loop
      vertex -7.68785 -1.56926 7
      vertex -7.38771 -1.47821 0
      vertex -7.68785 -1.56926 0
    endloop
  endfacet
  facet normal -0.634393 0.773011 0
    outer loop
      vertex -6.86863 -1.13137 0
      vertex -7.11109 -1.33035 7
      vertex -6.86863 -1.13137 7
    endloop
  endfacet
  facet normal -0.634393 0.773011 0
    outer loop
      vertex -7.11109 -1.33035 7
      vertex -6.86863 -1.13137 0
      vertex -7.11109 -1.33035 0
    endloop
  endfacet
  facet normal 0.0980174 0.995185 -0
    outer loop
      vertex -8 -1.6 0
      vertex -8.31214 -1.56926 7
      vertex -8 -1.6 7
    endloop
  endfacet
  facet normal 0.0980174 0.995185 0
    outer loop
      vertex -8.31214 -1.56926 7
      vertex -8 -1.6 0
      vertex -8.31214 -1.56926 0
    endloop
  endfacet
  facet normal 0.471396 0.881921 -0
    outer loop
      vertex -8.61229 -1.47821 0
      vertex -8.88891 -1.33035 7
      vertex -8.61229 -1.47821 7
    endloop
  endfacet
  facet normal 0.471396 0.881921 0
    outer loop
      vertex -8.88891 -1.33035 7
      vertex -8.61229 -1.47821 0
      vertex -8.88891 -1.33035 0
    endloop
  endfacet
  facet normal 0.290285 0.95694 -0
    outer loop
      vertex -8.31214 -1.56926 0
      vertex -8.61229 -1.47821 7
      vertex -8.31214 -1.56926 7
    endloop
  endfacet
  facet normal 0.290285 0.95694 0
    outer loop
      vertex -8.61229 -1.47821 7
      vertex -8.31214 -1.56926 0
      vertex -8.61229 -1.47821 0
    endloop
  endfacet
  facet normal 0.634393 0.773011 -0
    outer loop
      vertex -8.88891 -1.33035 0
      vertex -9.13137 -1.13137 7
      vertex -8.88891 -1.33035 7
    endloop
  endfacet
  facet normal 0.634393 0.773011 0
    outer loop
      vertex -9.13137 -1.13137 7
      vertex -8.88891 -1.33035 0
      vertex -9.13137 -1.13137 0
    endloop
  endfacet
  facet normal 0.95694 0.290285 0
    outer loop
      vertex -9.47821 -0.612293 7
      vertex -9.56926 -0.312144 0
      vertex -9.56926 -0.312144 7
    endloop
  endfacet
  facet normal 0.95694 0.290285 0
    outer loop
      vertex -9.56926 -0.312144 0
      vertex -9.47821 -0.612293 7
      vertex -9.47821 -0.612293 0
    endloop
  endfacet
  facet normal 0.995185 0.0980174 0
    outer loop
      vertex -9.56926 -0.312144 7
      vertex -9.6 0 0
      vertex -9.6 0 7
    endloop
  endfacet
  facet normal 0.995185 0.0980174 0
    outer loop
      vertex -9.6 0 0
      vertex -9.56926 -0.312144 7
      vertex -9.56926 -0.312144 0
    endloop
  endfacet
  facet normal -0.471396 0.881921 0
    outer loop
      vertex -7.11109 -1.33035 0
      vertex -7.38771 -1.47821 7
      vertex -7.11109 -1.33035 7
    endloop
  endfacet
  facet normal -0.471396 0.881921 0
    outer loop
      vertex -7.38771 -1.47821 7
      vertex -7.11109 -1.33035 0
      vertex -7.38771 -1.47821 0
    endloop
  endfacet
  facet normal -0.773011 0.634393 0
    outer loop
      vertex -6.86863 -1.13137 0
      vertex -6.66965 -0.888912 7
      vertex -6.66965 -0.888912 0
    endloop
  endfacet
  facet normal -0.773011 0.634393 0
    outer loop
      vertex -6.66965 -0.888912 7
      vertex -6.86863 -1.13137 0
      vertex -6.86863 -1.13137 7
    endloop
  endfacet
  facet normal 0.881921 0.471396 0
    outer loop
      vertex -9.33035 -0.888912 7
      vertex -9.47821 -0.612293 0
      vertex -9.47821 -0.612293 7
    endloop
  endfacet
  facet normal 0.881921 0.471396 0
    outer loop
      vertex -9.47821 -0.612293 0
      vertex -9.33035 -0.888912 7
      vertex -9.33035 -0.888912 0
    endloop
  endfacet
  facet normal -0.995185 -0.0980174 0
    outer loop
      vertex 9.6 0 0
      vertex 9.56926 0.312144 7
      vertex 9.56926 0.312144 0
    endloop
  endfacet
  facet normal -0.995185 -0.0980174 0
    outer loop
      vertex 9.56926 0.312144 7
      vertex 9.6 0 0
      vertex 9.6 0 7
    endloop
  endfacet
  facet normal 0.995185 -0.0980174 0
    outer loop
      vertex 6.4 0 7
      vertex 6.43074 0.312144 0
      vertex 6.43074 0.312144 7
    endloop
  endfacet
  facet normal 0.995185 -0.0980174 0
    outer loop
      vertex 6.43074 0.312144 0
      vertex 6.4 0 7
      vertex 6.4 0 0
    endloop
  endfacet
  facet normal 0.0980171 -0.995185 0
    outer loop
      vertex 7.68785 1.56926 0
      vertex 8 1.6 7
      vertex 7.68785 1.56926 7
    endloop
  endfacet
  facet normal 0.0980171 -0.995185 0
    outer loop
      vertex 8 1.6 7
      vertex 7.68785 1.56926 0
      vertex 8 1.6 0
    endloop
  endfacet
  facet normal 0.773011 0.634393 0
    outer loop
      vertex 6.86863 -1.13137 7
      vertex 6.66965 -0.888912 0
      vertex 6.66965 -0.888912 7
    endloop
  endfacet
  facet normal 0.773011 0.634393 0
    outer loop
      vertex 6.66965 -0.888912 0
      vertex 6.86863 -1.13137 7
      vertex 6.86863 -1.13137 0
    endloop
  endfacet
  facet normal -0.634393 -0.773011 0
    outer loop
      vertex 8.88891 1.33035 0
      vertex 9.13137 1.13137 7
      vertex 8.88891 1.33035 7
    endloop
  endfacet
  facet normal -0.634393 -0.773011 -0
    outer loop
      vertex 9.13137 1.13137 7
      vertex 8.88891 1.33035 0
      vertex 9.13137 1.13137 0
    endloop
  endfacet
  facet normal 0.634393 -0.773011 0
    outer loop
      vertex 6.86863 1.13137 0
      vertex 7.11109 1.33035 7
      vertex 6.86863 1.13137 7
    endloop
  endfacet
  facet normal 0.634393 -0.773011 0
    outer loop
      vertex 7.11109 1.33035 7
      vertex 6.86863 1.13137 0
      vertex 7.11109 1.33035 0
    endloop
  endfacet
  facet normal 0.471396 -0.881921 0
    outer loop
      vertex 7.11109 1.33035 0
      vertex 7.38771 1.47821 7
      vertex 7.11109 1.33035 7
    endloop
  endfacet
  facet normal 0.471396 -0.881921 0
    outer loop
      vertex 7.38771 1.47821 7
      vertex 7.11109 1.33035 0
      vertex 7.38771 1.47821 0
    endloop
  endfacet
  facet normal -0.634393 0.773011 0
    outer loop
      vertex 9.13137 -1.13137 0
      vertex 8.88891 -1.33035 7
      vertex 9.13137 -1.13137 7
    endloop
  endfacet
  facet normal -0.634393 0.773011 0
    outer loop
      vertex 8.88891 -1.33035 7
      vertex 9.13137 -1.13137 0
      vertex 8.88891 -1.33035 0
    endloop
  endfacet
  facet normal -0.881921 -0.471396 0
    outer loop
      vertex 9.47821 0.612293 0
      vertex 9.33035 0.888912 7
      vertex 9.33035 0.888912 0
    endloop
  endfacet
  facet normal -0.881921 -0.471396 0
    outer loop
      vertex 9.33035 0.888912 7
      vertex 9.47821 0.612293 0
      vertex 9.47821 0.612293 7
    endloop
  endfacet
  facet normal -0.95694 -0.290285 0
    outer loop
      vertex 9.56926 0.312144 0
      vertex 9.47821 0.612293 7
      vertex 9.47821 0.612293 0
    endloop
  endfacet
  facet normal -0.95694 -0.290285 0
    outer loop
      vertex 9.47821 0.612293 7
      vertex 9.56926 0.312144 0
      vertex 9.56926 0.312144 7
    endloop
  endfacet
  facet normal -0.773011 -0.634393 0
    outer loop
      vertex 9.33035 0.888912 0
      vertex 9.13137 1.13137 7
      vertex 9.13137 1.13137 0
    endloop
  endfacet
  facet normal -0.773011 -0.634393 0
    outer loop
      vertex 9.13137 1.13137 7
      vertex 9.33035 0.888912 0
      vertex 9.33035 0.888912 7
    endloop
  endfacet
  facet normal -0.290285 -0.95694 0
    outer loop
      vertex 8.31214 1.56926 0
      vertex 8.61229 1.47821 7
      vertex 8.31214 1.56926 7
    endloop
  endfacet
  facet normal -0.290285 -0.95694 -0
    outer loop
      vertex 8.61229 1.47821 7
      vertex 8.31214 1.56926 0
      vertex 8.61229 1.47821 0
    endloop
  endfacet
  facet normal -0.0980174 -0.995185 0
    outer loop
      vertex 8 1.6 0
      vertex 8.31214 1.56926 7
      vertex 8 1.6 7
    endloop
  endfacet
  facet normal -0.0980174 -0.995185 -0
    outer loop
      vertex 8.31214 1.56926 7
      vertex 8 1.6 0
      vertex 8.31214 1.56926 0
    endloop
  endfacet
  facet normal -0.471396 -0.881921 0
    outer loop
      vertex 8.61229 1.47821 0
      vertex 8.88891 1.33035 7
      vertex 8.61229 1.47821 7
    endloop
  endfacet
  facet normal -0.471396 -0.881921 -0
    outer loop
      vertex 8.88891 1.33035 7
      vertex 8.61229 1.47821 0
      vertex 8.88891 1.33035 0
    endloop
  endfacet
  facet normal 0.881921 -0.471396 0
    outer loop
      vertex 6.52179 0.612293 7
      vertex 6.66965 0.888912 0
      vertex 6.66965 0.888912 7
    endloop
  endfacet
  facet normal 0.881921 -0.471396 0
    outer loop
      vertex 6.66965 0.888912 0
      vertex 6.52179 0.612293 7
      vertex 6.52179 0.612293 0
    endloop
  endfacet
  facet normal 0.773011 -0.634393 0
    outer loop
      vertex 6.66965 0.888912 7
      vertex 6.86863 1.13137 0
      vertex 6.86863 1.13137 7
    endloop
  endfacet
  facet normal 0.773011 -0.634393 0
    outer loop
      vertex 6.86863 1.13137 0
      vertex 6.66965 0.888912 7
      vertex 6.66965 0.888912 0
    endloop
  endfacet
  facet normal 0.95694 -0.290285 0
    outer loop
      vertex 6.43074 0.312144 7
      vertex 6.52179 0.612293 0
      vertex 6.52179 0.612293 7
    endloop
  endfacet
  facet normal 0.95694 -0.290285 0
    outer loop
      vertex 6.52179 0.612293 0
      vertex 6.43074 0.312144 7
      vertex 6.43074 0.312144 0
    endloop
  endfacet
  facet normal 0.290285 -0.95694 0
    outer loop
      vertex 7.38771 1.47821 0
      vertex 7.68785 1.56926 7
      vertex 7.38771 1.47821 7
    endloop
  endfacet
  facet normal 0.290285 -0.95694 0
    outer loop
      vertex 7.68785 1.56926 7
      vertex 7.38771 1.47821 0
      vertex 7.68785 1.56926 0
    endloop
  endfacet
  facet normal -0.0980174 0.995185 0
    outer loop
      vertex 8.31214 -1.56926 0
      vertex 8 -1.6 7
      vertex 8.31214 -1.56926 7
    endloop
  endfacet
  facet normal -0.0980174 0.995185 0
    outer loop
      vertex 8 -1.6 7
      vertex 8.31214 -1.56926 0
      vertex 8 -1.6 0
    endloop
  endfacet
  facet normal -0.471396 0.881921 0
    outer loop
      vertex 8.88891 -1.33035 0
      vertex 8.61229 -1.47821 7
      vertex 8.88891 -1.33035 7
    endloop
  endfacet
  facet normal -0.471396 0.881921 0
    outer loop
      vertex 8.61229 -1.47821 7
      vertex 8.88891 -1.33035 0
      vertex 8.61229 -1.47821 0
    endloop
  endfacet
  facet normal 0.634393 0.773011 -0
    outer loop
      vertex 7.11109 -1.33035 0
      vertex 6.86863 -1.13137 7
      vertex 7.11109 -1.33035 7
    endloop
  endfacet
  facet normal 0.634393 0.773011 0
    outer loop
      vertex 6.86863 -1.13137 7
      vertex 7.11109 -1.33035 0
      vertex 6.86863 -1.13137 0
    endloop
  endfacet
  facet normal 0.290285 0.95694 -0
    outer loop
      vertex 7.68785 -1.56926 0
      vertex 7.38771 -1.47821 7
      vertex 7.68785 -1.56926 7
    endloop
  endfacet
  facet normal 0.290285 0.95694 0
    outer loop
      vertex 7.38771 -1.47821 7
      vertex 7.68785 -1.56926 0
      vertex 7.38771 -1.47821 0
    endloop
  endfacet
  facet normal 0.881921 0.471396 0
    outer loop
      vertex 6.66965 -0.888912 7
      vertex 6.52179 -0.612293 0
      vertex 6.52179 -0.612293 7
    endloop
  endfacet
  facet normal 0.881921 0.471396 0
    outer loop
      vertex 6.52179 -0.612293 0
      vertex 6.66965 -0.888912 7
      vertex 6.66965 -0.888912 0
    endloop
  endfacet
  facet normal 0.995185 0.0980174 0
    outer loop
      vertex 6.43074 -0.312144 7
      vertex 6.4 0 0
      vertex 6.4 0 7
    endloop
  endfacet
  facet normal 0.995185 0.0980174 0
    outer loop
      vertex 6.4 0 0
      vertex 6.43074 -0.312144 7
      vertex 6.43074 -0.312144 0
    endloop
  endfacet
  facet normal -0.290285 0.95694 0
    outer loop
      vertex 8.61229 -1.47821 0
      vertex 8.31214 -1.56926 7
      vertex 8.61229 -1.47821 7
    endloop
  endfacet
  facet normal -0.290285 0.95694 0
    outer loop
      vertex 8.31214 -1.56926 7
      vertex 8.61229 -1.47821 0
      vertex 8.31214 -1.56926 0
    endloop
  endfacet
  facet normal -0.773011 0.634393 0
    outer loop
      vertex 9.13137 -1.13137 0
      vertex 9.33035 -0.888912 7
      vertex 9.33035 -0.888912 0
    endloop
  endfacet
  facet normal -0.773011 0.634393 0
    outer loop
      vertex 9.33035 -0.888912 7
      vertex 9.13137 -1.13137 0
      vertex 9.13137 -1.13137 7
    endloop
  endfacet
  facet normal -0.995185 0.0980174 0
    outer loop
      vertex 9.56926 -0.312144 0
      vertex 9.6 0 7
      vertex 9.6 0 0
    endloop
  endfacet
  facet normal -0.995185 0.0980174 0
    outer loop
      vertex 9.6 0 7
      vertex 9.56926 -0.312144 0
      vertex 9.56926 -0.312144 7
    endloop
  endfacet
  facet normal 0.471396 0.881921 -0
    outer loop
      vertex 7.38771 -1.47821 0
      vertex 7.11109 -1.33035 7
      vertex 7.38771 -1.47821 7
    endloop
  endfacet
  facet normal 0.471396 0.881921 0
    outer loop
      vertex 7.11109 -1.33035 7
      vertex 7.38771 -1.47821 0
      vertex 7.11109 -1.33035 0
    endloop
  endfacet
  facet normal 0.0980171 0.995185 -0
    outer loop
      vertex 8 -1.6 0
      vertex 7.68785 -1.56926 7
      vertex 8 -1.6 7
    endloop
  endfacet
  facet normal 0.0980171 0.995185 0
    outer loop
      vertex 7.68785 -1.56926 7
      vertex 8 -1.6 0
      vertex 7.68785 -1.56926 0
    endloop
  endfacet
  facet normal 0.95694 0.290285 0
    outer loop
      vertex 6.52179 -0.612293 7
      vertex 6.43074 -0.312144 0
      vertex 6.43074 -0.312144 7
    endloop
  endfacet
  facet normal 0.95694 0.290285 0
    outer loop
      vertex 6.43074 -0.312144 0
      vertex 6.52179 -0.612293 7
      vertex 6.52179 -0.612293 0
    endloop
  endfacet
  facet normal -0.881921 0.471396 0
    outer loop
      vertex 9.33035 -0.888912 0
      vertex 9.47821 -0.612293 7
      vertex 9.47821 -0.612293 0
    endloop
  endfacet
  facet normal -0.881921 0.471396 0
    outer loop
      vertex 9.47821 -0.612293 7
      vertex 9.33035 -0.888912 0
      vertex 9.33035 -0.888912 7
    endloop
  endfacet
  facet normal -0.95694 0.290285 0
    outer loop
      vertex 9.47821 -0.612293 0
      vertex 9.56926 -0.312144 7
      vertex 9.56926 -0.312144 0
    endloop
  endfacet
  facet normal -0.95694 0.290285 0
    outer loop
      vertex 9.56926 -0.312144 7
      vertex 9.47821 -0.612293 0
      vertex 9.47821 -0.612293 7
    endloop
  endfacet
  facet normal 1 -0 0
    outer loop
      vertex -3 -3 5
      vertex -3 2 0
      vertex -3 2 5
    endloop
  endfacet
  facet normal 1 0 0
    outer loop
      vertex -3 2 0
      vertex -3 -3 5
      vertex -3 -3 0
    endloop
  endfacet
  facet normal -1 0 0
    outer loop
      vertex 3 -3 0
      vertex 3 2 5
      vertex 3 2 0
    endloop
  endfacet
  facet normal -1 -0 0
    outer loop
      vertex 3 2 5
      vertex 3 -3 0
      vertex 3 -3 5
    endloop
  endfacet
  facet normal 0 1 0
    outer loop
      vertex 3 -3 5
      vertex 0.674999 -3 1.16913
      vertex -3 -3 5
    endloop
  endfacet
  facet normal 0 1 -0
    outer loop
      vertex 3 -3 0
      vertex 0.674999 -3 1.16913
      vertex 3 -3 5
    endloop
  endfacet
  facet normal 0 1 0
    outer loop
      vertex 0.674999 -3 1.16913
      vertex 3 -3 0
      vertex 1.35 -3 0
    endloop
  endfacet
  facet normal 0 1 -0
    outer loop
      vertex -0.674999 -3 1.16913
      vertex -3 -3 5
      vertex 0.674999 -3 1.16913
    endloop
  endfacet
  facet normal 0 1 0
    outer loop
      vertex -3 -3 0
      vertex -0.674999 -3 1.16913
      vertex -1.35 -3 0
    endloop
  endfacet
  facet normal 0 1 0
    outer loop
      vertex -0.674999 -3 1.16913
      vertex -3 -3 0
      vertex -3 -3 5
    endloop
  endfacet
  facet normal 0 -1 0
    outer loop
      vertex -3 2 5
      vertex -0.674999 2 1.16913
      vertex 3 2 5
    endloop
  endfacet
  facet normal 0 -1 0
    outer loop
      vertex -3 2 0
      vertex -0.674999 2 1.16913
      vertex -3 2 5
    endloop
  endfacet
  facet normal 0 -1 0
    outer loop
      vertex -0.674999 2 1.16913
      vertex -3 2 0
      vertex -1.35 2 0
    endloop
  endfacet
  facet normal 0 -1 0
    outer loop
      vertex 0.674999 2 1.16913
      vertex 3 2 5
      vertex -0.674999 2 1.16913
    endloop
  endfacet
  facet normal 0 -1 0
    outer loop
      vertex 3 2 0
      vertex 0.674999 2 1.16913
      vertex 1.35 2 0
    endloop
  endfacet
  facet normal 0 -1 0
    outer loop
      vertex 0.674999 2 1.16913
      vertex 3 2 0
      vertex 3 2 5
    endloop
  endfacet
  facet normal 1 -0 0
    outer loop
      vertex -11.1 -5 8.2
      vertex -11.1 8.5 7
      vertex -11.1 8.5 8.2
    endloop
  endfacet
  facet normal 1 0 0
    outer loop
      vertex -11.1 8.5 7
      vertex -11.1 -5 8.2
      vertex -11.1 -5 7
    endloop
  endfacet
  facet normal -1 0 0
    outer loop
      vertex 11.1 -5 7
      vertex 11.1 8.5 8.2
      vertex 11.1 8.5 7
    endloop
  endfacet
  facet normal -1 -0 0
    outer loop
      vertex 11.1 8.5 8.2
      vertex 11.1 -5 7
      vertex 11.1 -5 8.2
    endloop
  endfacet
  facet normal -0 0 1
    outer loop
      vertex -11.1 8.5 7
      vertex -9.25 4.5 7
      vertex -9.25 8.5 7
    endloop
  endfacet
  facet normal 0 -0 1
    outer loop
      vertex -9.47821 0.612293 7
      vertex -9.25 4.5 7
      vertex -11.1 8.5 7
    endloop
  endfacet
  facet normal 0 0 1
    outer loop
      vertex -9.25 4.5 7
      vertex -9.47821 0.612293 7
      vertex -9.33035 0.888912 7
    endloop
  endfacet
  facet normal 0 0 1
    outer loop
      vertex -9.47821 0.612293 7
      vertex -11.1 8.5 7
      vertex -9.56926 0.312144 7
    endloop
  endfacet
  facet normal 0 0 1
    outer loop
      vertex -9.56926 0.312144 7
      vertex -11.1 8.5 7
      vertex -9.6 0 7
    endloop
  endfacet
  facet normal 0 0 1
    outer loop
      vertex -7.68785 1.56926 7
      vertex -6.1 2.4 7
      vertex -6.1 4.5 7
    endloop
  endfacet
  facet normal 0 0 1
    outer loop
      vertex -6.1 2.4 7
      vertex -6.43074 0.312144 7
      vertex -6.4 0 7
    endloop
  endfacet
  facet normal 0 0 1
    outer loop
      vertex -6.1 2.4 7
      vertex -6.52179 0.612293 7
      vertex -6.43074 0.312144 7
    endloop
  endfacet
  facet normal 0 0 1
    outer loop
      vertex -6.1 2.4 7
      vertex -6.66965 0.888912 7
      vertex -6.52179 0.612293 7
    endloop
  endfacet
  facet normal 0 0 1
    outer loop
      vertex -6.1 2.4 7
      vertex -6.86863 1.13137 7
      vertex -6.66965 0.888912 7
    endloop
  endfacet
  facet normal 0 0 1
    outer loop
      vertex -6.1 2.4 7
      vertex -7.11109 1.33035 7
      vertex -6.86863 1.13137 7
    endloop
  endfacet
  facet normal 0 0 1
    outer loop
      vertex -6.1 2.4 7
      vertex -7.38771 1.47821 7
      vertex -7.11109 1.33035 7
    endloop
  endfacet
  facet normal 0 0 1
    outer loop
      vertex -6.1 2.4 7
      vertex -7.68785 1.56926 7
      vertex -7.38771 1.47821 7
    endloop
  endfacet
  facet normal 0 0 1
    outer loop
      vertex -6.1 4.5 7
      vertex -8 1.6 7
      vertex -7.68785 1.56926 7
    endloop
  endfacet
  facet normal -0 0 1
    outer loop
      vertex -9.25 4.5 7
      vertex -8 1.6 7
      vertex -6.1 4.5 7
    endloop
  endfacet
  facet normal 0 0 1
    outer loop
      vertex -8 1.6 7
      vertex -9.25 4.5 7
      vertex -8.31214 1.56926 7
    endloop
  endfacet
  facet normal 0 0 1
    outer loop
      vertex -8.31214 1.56926 7
      vertex -9.25 4.5 7
      vertex -8.61229 1.47821 7
    endloop
  endfacet
  facet normal 0 0 1
    outer loop
      vertex -8.61229 1.47821 7
      vertex -9.25 4.5 7
      vertex -8.88891 1.33035 7
    endloop
  endfacet
  facet normal 0 0 1
    outer loop
      vertex -8.88891 1.33035 7
      vertex -9.25 4.5 7
      vertex -9.13137 1.13137 7
    endloop
  endfacet
  facet normal 0 0 1
    outer loop
      vertex -9.13137 1.13137 7
      vertex -9.25 4.5 7
      vertex -9.33035 0.888912 7
    endloop
  endfacet
  facet normal 0 0 1
    outer loop
      vertex -6.4 0 7
      vertex -4.5 2.4 7
      vertex -6.1 2.4 7
    endloop
  endfacet
  facet normal 0 0 1
    outer loop
      vertex -6.43074 -0.312144 7
      vertex -4.5 2.4 7
      vertex -6.4 0 7
    endloop
  endfacet
  facet normal 0 0 1
    outer loop
      vertex -4.5 2.4 7
      vertex -6.43074 -0.312144 7
      vertex -4.5 -5 7
    endloop
  endfacet
  facet normal -0 0 1
    outer loop
      vertex -6.52179 -0.612293 7
      vertex -4.5 -5 7
      vertex -6.43074 -0.312144 7
    endloop
  endfacet
  facet normal -0 0 1
    outer loop
      vertex -6.66965 -0.888912 7
      vertex -4.5 -5 7
      vertex -6.52179 -0.612293 7
    endloop
  endfacet
  facet normal -0 0 1
    outer loop
      vertex -6.86863 -1.13137 7
      vertex -4.5 -5 7
      vertex -6.66965 -0.888912 7
    endloop
  endfacet
  facet normal -0 0 1
    outer loop
      vertex -7.11109 -1.33035 7
      vertex -4.5 -5 7
      vertex -6.86863 -1.13137 7
    endloop
  endfacet
  facet normal -0 0 1
    outer loop
      vertex -7.38771 -1.47821 7
      vertex -4.5 -5 7
      vertex -7.11109 -1.33035 7
    endloop
  endfacet
  facet normal -0 0 1
    outer loop
      vertex -7.68785 -1.56926 7
      vertex -4.5 -5 7
      vertex -7.38771 -1.47821 7
    endloop
  endfacet
  facet normal -0 0 1
    outer loop
      vertex -8 -1.6 7
      vertex -4.5 -5 7
      vertex -7.68785 -1.56926 7
    endloop
  endfacet
  facet normal 0 0 1
    outer loop
      vertex -11.1 -5 7
      vertex -8 -1.6 7
      vertex -8.31214 -1.56926 7
    endloop
  endfacet
  facet normal 0 0 1
    outer loop
      vertex -11.1 -5 7
      vertex -8.31214 -1.56926 7
      vertex -8.61229 -1.47821 7
    endloop
  endfacet
  facet normal 0 0 1
    outer loop
      vertex -11.1 -5 7
      vertex -8.61229 -1.47821 7
      vertex -8.88891 -1.33035 7
    endloop
  endfacet
  facet normal 0 0 1
    outer loop
      vertex -11.1 -5 7
      vertex -8.88891 -1.33035 7
      vertex -9.13137 -1.13137 7
    endloop
  endfacet
  facet normal 0 0 1
    outer loop
      vertex -11.1 -5 7
      vertex -9.6 0 7
      vertex -11.1 8.5 7
    endloop
  endfacet
  facet normal 0 0 1
    outer loop
      vertex -8 -1.6 7
      vertex -11.1 -5 7
      vertex -4.5 -5 7
    endloop
  endfacet
  facet normal 0 0 1
    outer loop
      vertex -9.33035 -0.888912 7
      vertex -11.1 -5 7
      vertex -9.13137 -1.13137 7
    endloop
  endfacet
  facet normal 0 0 1
    outer loop
      vertex -9.47821 -0.612293 7
      vertex -11.1 -5 7
      vertex -9.33035 -0.888912 7
    endloop
  endfacet
  facet normal 0 0 1
    outer loop
      vertex -9.56926 -0.312144 7
      vertex -11.1 -5 7
      vertex -9.47821 -0.612293 7
    endloop
  endfacet
  facet normal 0 0 1
    outer loop
      vertex -9.6 0 7
      vertex -11.1 -5 7
      vertex -9.56926 -0.312144 7
    endloop
  endfacet
  facet normal 0 0 1
    outer loop
      vertex 11.1 8.5 7
      vertex 9.6 0 7
      vertex 11.1 -5 7
    endloop
  endfacet
  facet normal 0 0 1
    outer loop
      vertex 11.1 8.5 7
      vertex 9.56926 0.312144 7
      vertex 9.6 0 7
    endloop
  endfacet
  facet normal 0 0 1
    outer loop
      vertex 11.1 8.5 7
      vertex 9.47821 0.612293 7
      vertex 9.56926 0.312144 7
    endloop
  endfacet
  facet normal -0 0 1
    outer loop
      vertex 9.25 4.5 7
      vertex 9.47821 0.612293 7
      vertex 11.1 8.5 7
    endloop
  endfacet
  facet normal 0 0 1
    outer loop
      vertex 9.25 4.5 7
      vertex 11.1 8.5 7
      vertex 9.25 8.5 7
    endloop
  endfacet
  facet normal 0 0 1
    outer loop
      vertex 9.47821 0.612293 7
      vertex 9.25 4.5 7
      vertex 9.33035 0.888912 7
    endloop
  endfacet
  facet normal 0 0 1
    outer loop
      vertex 9.25 4.5 7
      vertex 9.13137 1.13137 7
      vertex 9.33035 0.888912 7
    endloop
  endfacet
  facet normal 0 0 1
    outer loop
      vertex 9.25 4.5 7
      vertex 8.88891 1.33035 7
      vertex 9.13137 1.13137 7
    endloop
  endfacet
  facet normal 0 0 1
    outer loop
      vertex 9.25 4.5 7
      vertex 8.61229 1.47821 7
      vertex 8.88891 1.33035 7
    endloop
  endfacet
  facet normal 0 0 1
    outer loop
      vertex 9.25 4.5 7
      vertex 8.31214 1.56926 7
      vertex 8.61229 1.47821 7
    endloop
  endfacet
  facet normal 0 0 1
    outer loop
      vertex 9.25 4.5 7
      vertex 8 1.6 7
      vertex 8.31214 1.56926 7
    endloop
  endfacet
  facet normal 0 0 1
    outer loop
      vertex 9.25 4.5 7
      vertex 7.68785 1.56926 7
      vertex 8 1.6 7
    endloop
  endfacet
  facet normal -0 0 1
    outer loop
      vertex 6.1 2.4 7
      vertex 7.68785 1.56926 7
      vertex 9.25 4.5 7
    endloop
  endfacet
  facet normal 0 0 1
    outer loop
      vertex 7.68785 1.56926 7
      vertex 6.1 2.4 7
      vertex 7.38771 1.47821 7
    endloop
  endfacet
  facet normal 0 0 1
    outer loop
      vertex 7.38771 1.47821 7
      vertex 6.1 2.4 7
      vertex 7.11109 1.33035 7
    endloop
  endfacet
  facet normal 0 0 1
    outer loop
      vertex 7.11109 1.33035 7
      vertex 6.1 2.4 7
      vertex 6.86863 1.13137 7
    endloop
  endfacet
  facet normal -0 0 1
    outer loop
      vertex 4.5 2.4 7
      vertex 6.52179 0.612293 7
      vertex 6.1 2.4 7
    endloop
  endfacet
  facet normal 0 0 1
    outer loop
      vertex 6.66965 0.888912 7
      vertex 6.1 2.4 7
      vertex 6.52179 0.612293 7
    endloop
  endfacet
  facet normal 0 0 1
    outer loop
      vertex 6.86863 1.13137 7
      vertex 6.1 2.4 7
      vertex 6.66965 0.888912 7
    endloop
  endfacet
  facet normal 0 0 1
    outer loop
      vertex 6.1 2.4 7
      vertex 9.25 4.5 7
      vertex 6.1 4.5 7
    endloop
  endfacet
  facet normal -0 0 1
    outer loop
      vertex 9.56926 -0.312144 7
      vertex 11.1 -5 7
      vertex 9.6 0 7
    endloop
  endfacet
  facet normal -0 0 1
    outer loop
      vertex 9.47821 -0.612293 7
      vertex 11.1 -5 7
      vertex 9.56926 -0.312144 7
    endloop
  endfacet
  facet normal -0 0 1
    outer loop
      vertex 9.33035 -0.888912 7
      vertex 11.1 -5 7
      vertex 9.47821 -0.612293 7
    endloop
  endfacet
  facet normal -0 0 1
    outer loop
      vertex 9.13137 -1.13137 7
      vertex 11.1 -5 7
      vertex 9.33035 -0.888912 7
    endloop
  endfacet
  facet normal -0 0 1
    outer loop
      vertex 8.88891 -1.33035 7
      vertex 11.1 -5 7
      vertex 9.13137 -1.13137 7
    endloop
  endfacet
  facet normal -0 0 1
    outer loop
      vertex 8.61229 -1.47821 7
      vertex 11.1 -5 7
      vertex 8.88891 -1.33035 7
    endloop
  endfacet
  facet normal -0 0 1
    outer loop
      vertex 8.31214 -1.56926 7
      vertex 11.1 -5 7
      vertex 8.61229 -1.47821 7
    endloop
  endfacet
  facet normal -0 0 1
    outer loop
      vertex 8 -1.6 7
      vertex 11.1 -5 7
      vertex 8.31214 -1.56926 7
    endloop
  endfacet
  facet normal 0 0 1
    outer loop
      vertex 4.5 -5 7
      vertex 8 -1.6 7
      vertex 7.68785 -1.56926 7
    endloop
  endfacet
  facet normal 0 0 1
    outer loop
      vertex 4.5 -5 7
      vertex 7.68785 -1.56926 7
      vertex 7.38771 -1.47821 7
    endloop
  endfacet
  facet normal 0 0 1
    outer loop
      vertex 4.5 -5 7
      vertex 7.38771 -1.47821 7
      vertex 7.11109 -1.33035 7
    endloop
  endfacet
  facet normal 0 0 1
    outer loop
      vertex 4.5 -5 7
      vertex 7.11109 -1.33035 7
      vertex 6.86863 -1.13137 7
    endloop
  endfacet
  facet normal 0 0 1
    outer loop
      vertex 6.52179 0.612293 7
      vertex 4.5 2.4 7
      vertex 6.43074 0.312144 7
    endloop
  endfacet
  facet normal 0 0 1
    outer loop
      vertex 6.43074 0.312144 7
      vertex 4.5 2.4 7
      vertex 6.4 0 7
    endloop
  endfacet
  facet normal 0 0 1
    outer loop
      vertex 6.4 0 7
      vertex 4.5 2.4 7
      vertex 6.43074 -0.312144 7
    endloop
  endfacet
  facet normal 0 0 1
    outer loop
      vertex 4.5 -5 7
      vertex 6.43074 -0.312144 7
      vertex 4.5 2.4 7
    endloop
  endfacet
  facet normal 0 0 1
    outer loop
      vertex 6.43074 -0.312144 7
      vertex 4.5 -5 7
      vertex 6.52179 -0.612293 7
    endloop
  endfacet
  facet normal 0 0 1
    outer loop
      vertex 8 -1.6 7
      vertex 4.5 -5 7
      vertex 11.1 -5 7
    endloop
  endfacet
  facet normal 0 0 1
    outer loop
      vertex 6.66965 -0.888912 7
      vertex 4.5 -5 7
      vertex 6.86863 -1.13137 7
    endloop
  endfacet
  facet normal 0 0 1
    outer loop
      vertex 6.52179 -0.612293 7
      vertex 4.5 -5 7
      vertex 6.66965 -0.888912 7
    endloop
  endfacet
  facet normal 0 1 -0
    outer loop
      vertex 4.5 -5 5
      vertex -4.5 -5 7
      vertex 4.5 -5 7
    endloop
  endfacet
  facet normal 0 1 0
    outer loop
      vertex -4.5 -5 7
      vertex 4.5 -5 5
      vertex -4.5 -5 5
    endloop
  endfacet
  facet normal 0 1 0
    outer loop
      vertex 4.5 -5 7
      vertex 11.1 -5 8.2
      vertex 11.1 -5 7
    endloop
  endfacet
  facet normal 0 1 0
    outer loop
      vertex 11.1 -5 8.2
      vertex 4.5 -5 7
      vertex -11.1 -5 8.2
    endloop
  endfacet
  facet normal 0 1 -0
    outer loop
      vertex -4.5 -5 7
      vertex -11.1 -5 8.2
      vertex 4.5 -5 7
    endloop
  endfacet
  facet normal 0 1 0
    outer loop
      vertex -11.1 -5 8.2
      vertex -4.5 -5 7
      vertex -11.1 -5 7
    endloop
  endfacet
  facet normal 1 -0 0
    outer loop
      vertex -9.25 4.5 7
      vertex -9.25 8.5 4.2
      vertex -9.25 8.5 7
    endloop
  endfacet
  facet normal 1 0 0
    outer loop
      vertex -9.25 8.5 4.2
      vertex -9.25 4.5 7
      vertex -9.25 4.5 4.2
    endloop
  endfacet
  facet normal -1 0 0
    outer loop
      vertex 9.25 4.5 4.2
      vertex 9.25 8.5 7
      vertex 9.25 8.5 4.2
    endloop
  endfacet
  facet normal -1 -0 0
    outer loop
      vertex 9.25 8.5 7
      vertex 9.25 4.5 4.2
      vertex 9.25 4.5 7
    endloop
  endfacet
  facet normal -0 0 1
    outer loop
      vertex -9.25 8.5 4.2
      vertex 9.25 4.5 4.2
      vertex 9.25 8.5 4.2
    endloop
  endfacet
  facet normal 0 0 1
    outer loop
      vertex 9.25 4.5 4.2
      vertex -9.25 8.5 4.2
      vertex -9.25 4.5 4.2
    endloop
  endfacet
  facet normal 0 1 0
    outer loop
      vertex 9.25 4.5 7
      vertex 6.1 4.5 5
      vertex 6.1 4.5 7
    endloop
  endfacet
  facet normal 0 1 0
    outer loop
      vertex 6.1 4.5 5
      vertex 9.25 4.5 4.2
      vertex -6.1 4.5 5
    endloop
  endfacet
  facet normal 0 1 -0
    outer loop
      vertex 9.25 4.5 4.2
      vertex 6.1 4.5 5
      vertex 9.25 4.5 7
    endloop
  endfacet
  facet normal 0 1 -0
    outer loop
      vertex -6.1 4.5 5
      vertex -9.25 4.5 7
      vertex -6.1 4.5 7
    endloop
  endfacet
  facet normal 0 1 0
    outer loop
      vertex -6.1 4.5 5
      vertex -9.25 4.5 4.2
      vertex -9.25 4.5 7
    endloop
  endfacet
  facet normal 0 1 0
    outer loop
      vertex -9.25 4.5 4.2
      vertex -6.1 4.5 5
      vertex 9.25 4.5 4.2
    endloop
  endfacet
  facet normal 1 -0 0
    outer loop
      vertex -4.5 -5 7
      vertex -4.5 2.4 5
      vertex -4.5 2.4 7
    endloop
  endfacet
  facet normal 1 0 0
    outer loop
      vertex -4.5 2.4 5
      vertex -4.5 -5 7
      vertex -4.5 -5 5
    endloop
  endfacet
  facet normal -1 0 0
    outer loop
      vertex 4.5 -5 5
      vertex 4.5 2.4 7
      vertex 4.5 2.4 5
    endloop
  endfacet
  facet normal -1 -0 0
    outer loop
      vertex 4.5 2.4 7
      vertex 4.5 -5 5
      vertex 4.5 -5 7
    endloop
  endfacet
  facet normal 0 0 1
    outer loop
      vertex 6.1 4.5 5
      vertex 4.5 2.4 5
      vertex 6.1 2.4 5
    endloop
  endfacet
  facet normal 0 0 1
    outer loop
      vertex 3 -3 5
      vertex 4.5 2.4 5
      vertex 3 2 5
    endloop
  endfacet
  facet normal 0 0 1
    outer loop
      vertex 6.1 4.5 5
      vertex 3 2 5
      vertex 4.5 2.4 5
    endloop
  endfacet
  facet normal 0 0 1
    outer loop
      vertex 6.1 4.5 5
      vertex -3 2 5
      vertex 3 2 5
    endloop
  endfacet
  facet normal 0 0 1
    outer loop
      vertex -3 2 5
      vertex -4.5 2.4 5
      vertex -3 -3 5
    endloop
  endfacet
  facet normal -0 0 1
    outer loop
      vertex -6.1 4.5 5
      vertex -3 2 5
      vertex 6.1 4.5 5
    endloop
  endfacet
  facet normal 0 0 1
    outer loop
      vertex -3 2 5
      vertex -6.1 4.5 5
      vertex -4.5 2.4 5
    endloop
  endfacet
  facet normal 0 0 1
    outer loop
      vertex -4.5 2.4 5
      vertex -6.1 4.5 5
      vertex -6.1 2.4 5
    endloop
  endfacet
  facet normal 0 0 1
    outer loop
      vertex 4.5 2.4 5
      vertex 3 -3 5
      vertex 4.5 -5 5
    endloop
  endfacet
  facet normal -0 0 1
    outer loop
      vertex -3 -3 5
      vertex 4.5 -5 5
      vertex 3 -3 5
    endloop
  endfacet
  facet normal 0 0 1
    outer loop
      vertex -3 -3 5
      vertex -4.5 -5 5
      vertex 4.5 -5 5
    endloop
  endfacet
  facet normal 0 0 1
    outer loop
      vertex -4.5 -5 5
      vertex -3 -3 5
      vertex -4.5 2.4 5
    endloop
  endfacet
  facet normal 1 -0 0
    outer loop
      vertex -6.1 2.4 7
      vertex -6.1 4.5 5
      vertex -6.1 4.5 7
    endloop
  endfacet
  facet normal 1 0 0
    outer loop
      vertex -6.1 4.5 5
      vertex -6.1 2.4 7
      vertex -6.1 2.4 5
    endloop
  endfacet
  facet normal -1 0 0
    outer loop
      vertex 6.1 2.4 5
      vertex 6.1 4.5 7
      vertex 6.1 4.5 5
    endloop
  endfacet
  facet normal -1 -0 0
    outer loop
      vertex 6.1 4.5 7
      vertex 6.1 2.4 5
      vertex 6.1 2.4 7
    endloop
  endfacet
  facet normal 0 1 -0
    outer loop
      vertex -4.5 2.4 5
      vertex -6.1 2.4 7
      vertex -4.5 2.4 7
    endloop
  endfacet
  facet normal 0 1 0
    outer loop
      vertex -6.1 2.4 7
      vertex -4.5 2.4 5
      vertex -6.1 2.4 5
    endloop
  endfacet
  facet normal 0 1 -0
    outer loop
      vertex 6.1 2.4 5
      vertex 4.5 2.4 7
      vertex 6.1 2.4 7
    endloop
  endfacet
  facet normal 0 1 0
    outer loop
      vertex 4.5 2.4 7
      vertex 6.1 2.4 5
      vertex 4.5 2.4 5
    endloop
  endfacet
endsolid OpenSCAD_Model
